<?xml version="1.0" encoding="utf-8"?>
<!-- Generator: Adobe Illustrator 25.0.0, SVG Export Plug-In . SVG Version: 6.00 Build 0)  -->
<svg version="1.1" id="Layer_1" xmlns="http://www.w3.org/2000/svg" xmlns:xlink="http://www.w3.org/1999/xlink" x="0px" y="0px"
	 viewBox="0 0 127 36" style="enable-background:new 0 0 127 36;" xml:space="preserve">
<style type="text/css">
	.st0{fill:#62686B;}
	.st1{fill-rule:evenodd;clip-rule:evenodd;fill:#295D90;}
</style>
<g>
	<path class="st0" d="M46.2,4.9h-3.1V3.3H51v1.5h-3.1v9.4h-1.6V4.9z"/>
	<path class="st0" d="M52.3,3.3h1.6v4.4c0.6-0.7,1.4-1.1,2.3-1.1c1.9,0,3,1.2,3,3.3v4.4h-1.6v-4.2c0-1.2-0.6-2-1.8-2
		c-1.1,0-1.9,0.9-1.9,1.9c0,0.1,0,0.1,0,0.2v4.1h-1.6V3.3z"/>
	<path class="st0" d="M60.5,10.6c0-2.1,1.7-3.9,3.8-3.9c0,0,0.1,0,0.1,0c2.1-0.1,3.8,1.5,3.8,3.6c0,0.1,0,0.2,0,0.2v0.6H62
		c0.2,1.2,1.2,2,2.4,1.9c0.9,0,1.8-0.5,2.2-1.4l1.3,0.7c-1.1,1.9-3.5,2.6-5.4,1.5C61.3,13.2,60.5,11.9,60.5,10.6L60.5,10.6z
		 M62.1,9.7h4.5c-0.2-1-1.2-1.8-2.2-1.7C63.3,8,62.4,8.7,62.1,9.7z"/>
	<path class="st0" d="M72.9,8.8c0-3.1,2.5-5.6,5.6-5.6c3.1,0,5.6,2.5,5.6,5.6c0,3.1-2.5,5.6-5.6,5.6C75.4,14.4,72.9,11.9,72.9,8.8
		C72.9,8.8,72.9,8.8,72.9,8.8z M82.5,8.8c0-2.2-1.8-4-4-3.9c-2.2,0-4,1.8-3.9,4c0,2.2,1.8,3.9,4,3.9C80.7,12.8,82.5,11.1,82.5,8.8
		C82.5,8.8,82.5,8.8,82.5,8.8L82.5,8.8z"/>
	<path class="st0" d="M85.2,6.8h1.3V5L88,4.1v2.6h1.6v1.4H88v3c0,1.3,0.2,1.6,1.6,1.6v1.5h-0.2c-2.3,0-3-0.7-3-3.1v-3h-1.3V6.8z"/>
	<path class="st0" d="M90.6,6.8h1.3V5l1.6-0.9v2.6h1.6v1.4h-1.6v3c0,1.3,0.2,1.6,1.6,1.6v1.5h-0.2c-2.3,0-3-0.7-3-3.1v-3h-1.3
		L90.6,6.8z"/>
	<path class="st0" d="M96.2,10.5c-0.1-2.1,1.5-3.8,3.6-3.9c0.1,0,0.1,0,0.2,0c1,0,1.9,0.4,2.5,1.1v-1h1.6v7.5h-1.6v-1
		c-0.6,0.8-1.5,1.2-2.5,1.2C97.8,14.4,96.2,12.7,96.2,10.5C96.2,10.6,96.2,10.6,96.2,10.5z M102.5,10.5c0-1.3-1.1-2.4-2.4-2.3
		c-1.3,0-2.4,1.1-2.3,2.4c0,1.3,1.1,2.3,2.3,2.3C101.4,13,102.5,11.9,102.5,10.5C102.5,10.6,102.5,10.5,102.5,10.5L102.5,10.5z"/>
	<path class="st0" d="M105.3,6.8h1.6l1.7,5.3l2-5.3h1.6l1.9,5.3l1.8-5.3h1.6l-2.6,7.5h-1.5l-2-5.3l-2,5.3h-1.6L105.3,6.8z"/>
	<path class="st0" d="M118.4,10.5c-0.1-2.1,1.5-3.8,3.6-3.9c0.1,0,0.1,0,0.2,0c1,0,1.9,0.4,2.5,1.1v-1h1.6v7.5h-1.6v-1
		c-0.6,0.8-1.5,1.2-2.5,1.2C120,14.4,118.4,12.7,118.4,10.5C118.4,10.6,118.4,10.6,118.4,10.5z M124.7,10.5c0-1.3-1.1-2.3-2.4-2.3
		c-1.3,0-2.3,1.1-2.3,2.4c0,1.3,1.1,2.3,2.4,2.3C123.7,13,124.7,11.9,124.7,10.5C124.7,10.6,124.7,10.5,124.7,10.5L124.7,10.5z"/>
	<path class="st0" d="M52.8,24.6h-4.9v4.7h-1.6V18.4h1.6v4.7h4.9v-4.7h1.6v10.9h-1.6V24.6z"/>
	<path class="st0" d="M55.8,25.6c0-2.1,1.7-3.9,3.9-3.9c2.1,0,3.9,1.7,3.9,3.9c0,2.1-1.7,3.9-3.9,3.9C57.6,29.5,55.9,27.8,55.8,25.6
		C55.8,25.7,55.8,25.6,55.8,25.6z M62,25.6c-0.1-1.3-1.1-2.3-2.4-2.2c-1.3,0.1-2.3,1.1-2.2,2.4c0.1,1.2,1.1,2.2,2.3,2.2
		C61,28,62.1,26.9,62,25.6C62,25.6,62,25.6,62,25.6z"/>
	<path class="st0" d="M64.3,27.8l1.4-0.7c0.4,0.7,1.1,1.1,1.9,1.1c0.9,0,1.4-0.5,1.4-1c0-0.5-0.9-0.7-1.8-0.9
		c-1.3-0.3-2.6-0.7-2.6-2.2c0-1.2,1.1-2.3,2.9-2.3c1.2-0.1,2.3,0.5,3,1.4l-1.3,0.7c-0.4-0.6-1-0.9-1.7-0.9c-0.9,0-1.3,0.4-1.3,0.9
		s0.7,0.7,1.8,0.9c1.2,0.3,2.6,0.7,2.6,2.2c0,1-0.9,2.4-3,2.4C66.2,29.6,64.9,28.9,64.3,27.8z"/>
	<path class="st0" d="M73.4,28.4v4.4h-1.6V21.9h1.6v1c0.6-0.8,1.5-1.2,2.5-1.2c2.1,0,3.7,1.7,3.7,3.7c0,0.1,0,0.1,0,0.2
		c0.1,2.1-1.6,3.8-3.6,3.9c0,0-0.1,0-0.1,0C75,29.5,74.1,29.2,73.4,28.4z M78.1,25.6c0-1.3-1.1-2.3-2.4-2.3c-1.3,0-2.3,1.1-2.3,2.4
		c0,1.3,1.1,2.3,2.4,2.3C77,28,78.1,26.9,78.1,25.6C78.1,25.6,78.1,25.6,78.1,25.6L78.1,25.6z"/>
	<path class="st0" d="M80.9,18.7h1.6v2.1h-1.6V18.7z M80.9,21.9h1.6v7.5h-1.6V21.9z"/>
	<path class="st0" d="M83.6,21.9h1.3v-1.8l1.6-0.9v2.7H88v1.4h-1.6v3c0,1.3,0.2,1.6,1.6,1.6v1.5h-0.2c-2.3,0-3-0.7-3-3.1v-3h-1.3
		V21.9z"/>
	<path class="st0" d="M88.7,25.6c-0.1-2.1,1.5-3.8,3.6-3.9c0.1,0,0.1,0,0.2,0c1,0,1.9,0.4,2.5,1.1v-1h1.6v7.5h-1.6v-1
		c-0.6,0.8-1.5,1.2-2.5,1.2C90.4,29.5,88.7,27.8,88.7,25.6C88.7,25.7,88.7,25.6,88.7,25.6z M95.1,25.6c0-1.3-1.1-2.3-2.4-2.3
		c-1.3,0-2.3,1.1-2.3,2.4c0,1.3,1.1,2.3,2.4,2.3C94,28.1,95.1,27,95.1,25.6C95.1,25.7,95.1,25.6,95.1,25.6L95.1,25.6z"/>
	<path class="st0" d="M98.2,18.4h1.6v10.9h-1.6V18.4z"/>
</g>
<path class="st1" d="M15.8,27.9V24h-12c0-4.7,3.9-8.4,8.5-9.4s8.8,1.1,9.2,5C21.8,22.8,19.4,26.1,15.8,27.9 M3.8,16v-4H15
	c-1,0-2,0.1-3,0.3C9,12.8,6.1,14,3.8,16 M15.8,12V0h12v12h12v12h-12v12h-12c7.8-2.7,13-9.6,11.9-15.9C26.8,14.9,21.8,12.1,15.8,12
	L15.8,12z"/>
</svg>
